{
  "source": "C:\\Users\\Peter\\Desktop\\stuff\\MIUN\\quantitative_research\\video_compression\\videos\\BVI-HD\\BVI-HD_CDVL_videos\\ORIG\\CalmingWater_1920x1080_60fps.mp4",
  "output": "C:\\Users\\Peter\\Desktop\\stuff\\MIUN\\quantitative_research\\video_compression\\compressed_videos\\BVI-HD\\av1\\3\\CalmingWater_1920x1080_60fps_av1.mkv",
  "codec": "av1",
  "ok": "Input #0, mov,mp4,m4a,3gp,3g2,mj2, from 'C:\\Users\\Peter\\Desktop\\stuff\\MIUN\\quantitative_research\\video_compression\\videos\\BVI-HD\\BVI-HD_CDVL_videos\\ORIG\\CalmingWater_1920x1080_60fps.mp4':\n  Metadata:\n    major_brand     : isom\n    minor_version   : 512\n    compatible_brands: isomiso2avc1mp41\n    encoder         : Lavf54.28.101\n  Duration: 00:00:05.00, start: 0.000000, bitrate: 623787 kb/s\n  Stream #0:0[0x1](und): Video: h264 (High 4:4:4 Predictive) (avc1 / 0x31637661), yuv420p(progressive), 1920x1080, 623782 kb/s, 60 fps, 60 tbr, 60 tbn (default)\n    Metadata:\n      handler_name    : VideoHandler\n      vendor_id       : [0][0][0][0]\n[out#0/matroska @ 000002374d0d90c0] Codec AVOption b:a (set bitrate (in bits/s)) has not been used for any stream. The most likely reason is either wrong type (e.g. a video option with no video streams) or that it is a private option of some decoder which was not actually used for any stream.\nStream mapping:\n  Stream #0:0 -> #0:0 (h264 (native) -> av1 (libsvtav1))\nPress [q] to stop, [?] for help\nSvt[info]: -------------------------------------------\nSvt[info]: SVT [version]:\tSVT-AV1 Encoder Lib v3.1.0-19-g6ecfe8ec\nSvt[info]: SVT [build]  :\tGCC 15.2.0\t 64 bit\nSvt[info]: LIB Build date: Aug 17 2025 11:37:13\nSvt[info]: -------------------------------------------\nSvt[info]: Level of Parallelism: 5\nSvt[info]: Number of PPCS 93\nSvt[info]: [asm level on system : up to avx2]\nSvt[info]: [asm level selected : up to avx2]\nSvt[info]: -------------------------------------------\nSvt[info]: SVT [config]: main profile\ttier (auto)\tlevel (auto)\nSvt[info]: SVT [config]: width / height / fps numerator / fps denominator \t\t: 1920 / 1080 / 60 / 1\nSvt[info]: SVT [config]: bit-depth / color format \t\t\t\t\t: 8 / YUV420\nSvt[info]: SVT [config]: preset / tune / pred struct \t\t\t\t\t: 4 / PSNR / random access\nSvt[info]: SVT [config]: gop size / mini-gop size / key-frame type \t\t\t: 321 / 16 / key frame\nSvt[info]: SVT [config]: BRC mode / target bitrate (kbps)\t\t\t\t: VBR / 3000 \nSvt[info]: SVT [config]: AQ mode / Variance Boost \t\t\t\t\t: 2 / 0\nSvt[info]: SVT [config]: sharpness / luminance-based QP bias \t\t\t\t: 0 / 0\nSvt[info]: SVT [config]: QP scale compress strength \t\t\t\t\t: 0\nSvt[info]: -------------------------------------------\nOutput #0, matroska, to 'C:\\Users\\Peter\\Desktop\\stuff\\MIUN\\quantitative_research\\video_compression\\compressed_videos\\BVI-HD\\av1\\3\\CalmingWater_1920x1080_60fps_av1.mkv':\n  Metadata:\n    major_brand     : isom\n    minor_version   : 512\n    compatible_brands: isomiso2avc1mp41\n    encoder         : Lavf62.3.100\n  Stream #0:0(und): Video: av1 (AV01 / 0x31305641), yuv420p(tv, progressive), 1920x1080, q=2-31, 3000 kb/s, 60 fps, 1k tbn (default)\n    Metadata:\n      encoder         : Lavc62.11.100 libsvtav1\n      handler_name    : VideoHandler\n      vendor_id       : [0][0][0][0]\n    Side data:\n      cpb: bitrate max/min/avg: 0/0/3000000 buffer size: 3000000 vbv_delay: N/A\nframe=    0 fps=0.0 q=0.0 size=       0KiB time=N/A bitrate=N/A speed=N/A elapsed=0:00:01.62    \nframe=    0 fps=0.0 q=0.0 size=       0KiB time=N/A bitrate=N/A speed=N/A elapsed=0:00:02.56    \nframe=    0 fps=0.0 q=0.0 size=       0KiB time=N/A bitrate=N/A speed=N/A elapsed=0:00:03.08    \nframe=    0 fps=0.0 q=0.0 size=       0KiB time=N/A bitrate=N/A speed=N/A elapsed=0:00:03.65    \nframe=    0 fps=0.0 q=0.0 size=       0KiB time=N/A bitrate=N/A speed=N/A elapsed=0:00:04.20    \nframe=    0 fps=0.0 q=0.0 size=       0KiB time=N/A bitrate=N/A speed=N/A elapsed=0:00:04.77    \nframe=    0 fps=0.0 q=0.0 size=       0KiB time=N/A bitrate=N/A speed=N/A elapsed=0:00:05.36    \nframe=    1 fps=0.2 q=51.0 size=       1KiB time=00:00:00.00 bitrate=N/A speed=   0x elapsed=0:00:05.94    \nframe=    1 fps=0.2 q=51.0 size=       1KiB time=00:00:00.00 bitrate=N/A speed=   0x elapsed=0:00:06.46    \nframe=    1 fps=0.1 q=51.0 size=       1KiB time=00:00:00.00 bitrate=N/A speed=   0x elapsed=0:00:06.98    \nframe=    2 fps=0.3 q=57.0 size=       1KiB time=00:00:00.00 bitrate=N/A speed=   0x elapsed=0:00:07.49    \nframe=    3 fps=0.4 q=56.0 size=       1KiB time=00:00:00.03 bitrate= 170.9kbits/s speed=0.00414x elapsed=0:00:08.04    \nframe=    6 fps=0.7 q=58.0 size=       1KiB time=00:00:00.06 bitrate=  85.4kbits/s speed=0.00778x elapsed=0:00:08.57    \nframe=    7 fps=0.8 q=56.0 size=       1KiB time=00:00:00.10 bitrate=  57.0kbits/s speed=0.0109x elapsed=0:00:09.16    \nframe=    9 fps=0.9 q=55.0 size=       1KiB time=00:00:00.13 bitrate=  42.7kbits/s speed=0.0136x elapsed=0:00:09.78    \nframe=   12 fps=1.2 q=58.0 size=       1KiB time=00:00:00.18 bitrate=  31.1kbits/s speed=0.0178x elapsed=0:00:10.30    \nframe=   14 fps=1.3 q=58.0 size=       1KiB time=00:00:00.21 bitrate=  26.3kbits/s speed=0.02x elapsed=0:00:10.85    \nframe=   17 fps=1.5 q=52.0 size=       1KiB time=00:00:00.26 bitrate=  21.4kbits/s speed=0.0232x elapsed=0:00:11.48    \nframe=   19 fps=1.6 q=57.0 size=       1KiB time=00:00:00.30 bitrate=  19.0kbits/s speed=0.0249x elapsed=0:00:12.05    \nframe=   21 fps=1.7 q=55.0 size=       1KiB time=00:00:00.33 bitrate=  17.1kbits/s speed=0.0264x elapsed=0:00:12.61    \nframe=   23 fps=1.7 q=57.0 size=       1KiB time=00:00:00.36 bitrate=  15.5kbits/s speed=0.0279x elapsed=0:00:13.15    \nframe=   25 fps=1.8 q=54.0 size=       1KiB time=00:00:00.40 bitrate=  14.2kbits/s speed=0.0291x elapsed=0:00:13.73    \nframe=   28 fps=2.0 q=59.0 size=       1KiB time=00:00:00.45 bitrate=  12.7kbits/s speed=0.0315x elapsed=0:00:14.30    \nframe=   31 fps=2.1 q=56.0 size=       1KiB time=00:00:00.50 bitrate=  11.4kbits/s speed=0.0337x elapsed=0:00:14.84    \nframe=   34 fps=2.2 q=59.0 size=       1KiB time=00:00:00.55 bitrate=  10.4kbits/s speed=0.0357x elapsed=0:00:15.41    \nframe=   36 fps=2.3 q=59.0 size=       1KiB time=00:00:00.58 bitrate=   9.8kbits/s speed=0.0365x elapsed=0:00:15.98    \nframe=   38 fps=2.3 q=59.0 size=       1KiB time=00:00:00.61 bitrate=   9.2kbits/s speed=0.0372x elapsed=0:00:16.55    \nframe=   39 fps=2.3 q=58.0 size=       1KiB time=00:00:00.63 bitrate=   9.0kbits/s speed=0.0371x elapsed=0:00:17.09    \nframe=   43 fps=2.4 q=58.0 size=       1KiB time=00:00:00.68 bitrate=   8.3kbits/s speed=0.0387x elapsed=0:00:17.64    \nframe=   45 fps=2.5 q=56.0 size=       1KiB time=00:00:00.73 bitrate=   7.8kbits/s speed=0.0403x elapsed=0:00:18.19    \nframe=   49 fps=2.6 q=52.0 size=       1KiB time=00:00:00.80 bitrate=   7.1kbits/s speed=0.0428x elapsed=0:00:18.69    \nframe=   51 fps=2.7 q=59.0 size=       1KiB time=00:00:00.83 bitrate=   6.8kbits/s speed=0.0433x elapsed=0:00:19.23    \nframe=   54 fps=2.7 q=61.0 size=       1KiB time=00:00:00.88 bitrate=   6.4kbits/s speed=0.0446x elapsed=0:00:19.78    \nframe=   55 fps=2.7 q=59.0 size=       1KiB time=00:00:00.90 bitrate=   6.3kbits/s speed=0.0442x elapsed=0:00:20.37    \nframe=   58 fps=2.8 q=61.0 size=       1KiB time=00:00:00.95 bitrate=   6.0kbits/s speed=0.0454x elapsed=0:00:20.91    \nframe=   61 fps=2.8 q=58.0 size=       1KiB time=00:00:01.00 bitrate=   5.7kbits/s speed=0.0466x elapsed=0:00:21.44    \nframe=   65 fps=3.0 q=53.0 size=       1KiB time=00:00:01.05 bitrate=   5.4kbits/s speed=0.0477x elapsed=0:00:22.00    \nframe=   69 fps=3.1 q=59.0 size=       1KiB time=00:00:01.13 bitrate=   5.0kbits/s speed=0.0502x elapsed=0:00:22.57    \nframe=   71 fps=3.1 q=60.0 size=       1KiB time=00:00:01.16 bitrate=   4.9kbits/s speed=0.0505x elapsed=0:00:23.12    \nframe=   73 fps=3.1 q=58.0 size=       1KiB time=00:00:01.20 bitrate=   4.7kbits/s speed=0.0506x elapsed=0:00:23.71    \nframe=   77 fps=3.2 q=59.0 size=       1KiB time=00:00:01.25 bitrate=   4.6kbits/s speed=0.0515x elapsed=0:00:24.27    \nframe=   80 fps=3.2 q=61.0 size=       1KiB time=00:00:01.31 bitrate=   4.3kbits/s speed=0.053x elapsed=0:00:24.83    \nframe=   83 fps=3.3 q=59.0 size=       1KiB time=00:00:01.36 bitrate=   4.2kbits/s speed=0.0539x elapsed=0:00:25.35    \nframe=   86 fps=3.3 q=61.0 size=       1KiB time=00:00:01.41 bitrate=   4.0kbits/s speed=0.0547x elapsed=0:00:25.90    \nframe=   87 fps=3.3 q=59.0 size=       1KiB time=00:00:01.43 bitrate=   4.0kbits/s speed=0.0542x elapsed=0:00:26.43    \nframe=   89 fps=3.3 q=59.0 size=       1KiB time=00:00:01.46 bitrate=   3.9kbits/s speed=0.0544x elapsed=0:00:26.97    \nframe=   92 fps=3.3 q=60.0 size=       1KiB time=00:00:01.51 bitrate=   3.8kbits/s speed=0.0551x elapsed=0:00:27.54    \nframe=   95 fps=3.4 q=57.0 size=       1KiB time=00:00:01.56 bitrate=   3.6kbits/s speed=0.0558x elapsed=0:00:28.09    \nframe=   98 fps=3.4 q=60.0 size=       1KiB time=00:00:01.61 bitrate=   3.5kbits/s speed=0.0565x elapsed=0:00:28.62    \nframe=  100 fps=3.4 q=60.0 size=       1KiB time=00:00:01.65 bitrate=   3.5kbits/s speed=0.0566x elapsed=0:00:29.16    \nframe=  103 fps=3.5 q=59.0 size=       1KiB time=00:00:01.70 bitrate=   3.4kbits/s speed=0.0572x elapsed=0:00:29.69    \nframe=  105 fps=3.5 q=58.0 size=       1KiB time=00:00:01.73 bitrate=   3.3kbits/s speed=0.0573x elapsed=0:00:30.22    \nframe=  108 fps=3.5 q=61.0 size=       1KiB time=00:00:01.78 bitrate=   3.2kbits/s speed=0.0579x elapsed=0:00:30.80    \nframe=  111 fps=3.5 q=59.0 size=       1KiB time=00:00:01.83 bitrate=   3.1kbits/s speed=0.0585x elapsed=0:00:31.36    \nframe=  114 fps=3.6 q=61.0 size=       1KiB time=00:00:01.88 bitrate=   3.0kbits/s speed=0.059x elapsed=0:00:31.90    \nframe=  116 fps=3.6 q=61.0 size=       1KiB time=00:00:01.91 bitrate=   3.0kbits/s speed=0.0591x elapsed=0:00:32.43    \nframe=  119 fps=3.6 q=59.0 size=       1KiB time=00:00:01.95 bitrate=   2.9kbits/s speed=0.0592x elapsed=0:00:32.95    \nframe=  121 fps=3.6 q=57.0 size=       1KiB time=00:00:02.00 bitrate=   2.8kbits/s speed=0.0596x elapsed=0:00:33.57    \nframe=  125 fps=3.7 q=58.0 size=       1KiB time=00:00:02.05 bitrate=   2.8kbits/s speed=0.06x elapsed=0:00:34.16    \nframe=  128 fps=3.7 q=61.0 size=       1KiB time=00:00:02.11 bitrate=   2.7kbits/s speed=0.061x elapsed=0:00:34.72    \nframe=  131 fps=3.7 q=60.0 size=       1KiB time=00:00:02.16 bitrate=   2.6kbits/s speed=0.0614x elapsed=0:00:35.27    \nframe=  134 fps=3.7 q=61.0 size=       1KiB time=00:00:02.21 bitrate=   2.6kbits/s speed=0.0619x elapsed=0:00:35.81    \nframe=  135 fps=3.7 q=60.0 size=       1KiB time=00:00:02.23 bitrate=   2.6kbits/s speed=0.0614x elapsed=0:00:36.36    \nframe=  138 fps=3.7 q=61.0 size=       1KiB time=00:00:02.28 bitrate=   2.5kbits/s speed=0.0619x elapsed=0:00:36.89    \nframe=  142 fps=3.8 q=61.0 size=       1KiB time=00:00:02.35 bitrate=   2.4kbits/s speed=0.0628x elapsed=0:00:37.44    \nframe=  145 fps=3.8 q=55.0 size=       1KiB time=00:00:02.40 bitrate=   2.4kbits/s speed=0.0632x elapsed=0:00:37.97    \nframe=  147 fps=3.8 q=59.0 size=       1KiB time=00:00:02.43 bitrate=   2.3kbits/s speed=0.0632x elapsed=0:00:38.51    \nframe=  150 fps=3.8 q=61.0 size=       1KiB time=00:00:02.48 bitrate=   2.3kbits/s speed=0.0636x elapsed=0:00:39.03    \nframe=  151 fps=3.8 q=59.0 size=       1KiB time=00:00:02.50 bitrate=   2.3kbits/s speed=0.0632x elapsed=0:00:39.54    \nframe=  154 fps=3.8 q=60.0 size=       1KiB time=00:00:02.55 bitrate=   2.2kbits/s speed=0.0635x elapsed=0:00:40.12    \nframe=  157 fps=3.9 q=57.0 size=       1KiB time=00:00:02.60 bitrate=   2.2kbits/s speed=0.0639x elapsed=0:00:40.67    \nframe=  162 fps=3.9 q=60.0 size=       1KiB time=00:00:02.68 bitrate=   2.1kbits/s speed=0.0651x elapsed=0:00:41.20    \nframe=  164 fps=3.9 q=60.0 size=       1KiB time=00:00:02.71 bitrate=   2.1kbits/s speed=0.065x elapsed=0:00:41.77    \nframe=  166 fps=3.9 q=60.0 size=       1KiB time=00:00:02.75 bitrate=   2.1kbits/s speed=0.065x elapsed=0:00:42.30    \nframe=  169 fps=3.9 q=57.0 size=       1KiB time=00:00:02.80 bitrate=   2.0kbits/s speed=0.0653x elapsed=0:00:42.84    \nframe=  172 fps=4.0 q=60.0 size=       1KiB time=00:00:02.83 bitrate=   2.0kbits/s speed=0.0652x elapsed=0:00:43.46    \nframe=  175 fps=4.0 q=59.0 size=       1KiB time=00:00:02.90 bitrate=   2.0kbits/s speed=0.0659x elapsed=0:00:44.01    \nframe=  179 fps=4.0 q=59.0 size=       1KiB time=00:00:02.95 bitrate=   1.9kbits/s speed=0.0662x elapsed=0:00:44.53    \nframe=  182 fps=4.0 q=60.0 size=       1KiB time=00:00:03.00 bitrate=   1.9kbits/s speed=0.0665x elapsed=0:00:45.11    \nframe=  183 fps=4.0 q=59.0 size=       1KiB time=00:00:03.03 bitrate=   1.9kbits/s speed=0.0664x elapsed=0:00:45.67    \nframe=  186 fps=4.0 q=60.0 size=       1KiB time=00:00:03.08 bitrate=   1.8kbits/s speed=0.0667x elapsed=0:00:46.23    \nframe=  190 fps=4.1 q=60.0 size=       1KiB time=00:00:03.15 bitrate=   1.8kbits/s speed=0.0672x elapsed=0:00:46.84    \nframe=  194 fps=4.1 q=60.0 size=       1KiB time=00:00:03.21 bitrate=   1.8kbits/s speed=0.0679x elapsed=0:00:47.37    \nframe=  197 fps=4.1 q=57.0 size=       1KiB time=00:00:03.26 bitrate=   1.7kbits/s speed=0.0681x elapsed=0:00:47.94    \nframe=  199 fps=4.1 q=59.0 size=       1KiB time=00:00:03.30 bitrate=   1.7kbits/s speed=0.068x elapsed=0:00:48.53    \nframe=  202 fps=4.1 q=60.0 size=       1KiB time=00:00:03.35 bitrate=   1.7kbits/s speed=0.0682x elapsed=0:00:49.13    \nframe=  205 fps=4.1 q=57.0 size=       1KiB time=00:00:03.40 bitrate=   1.7kbits/s speed=0.0684x elapsed=0:00:49.70    \nframe=  209 fps=4.2 q=53.0 size=       1KiB time=00:00:03.46 bitrate=   1.6kbits/s speed=0.069x elapsed=0:00:50.26    \nframe=  213 fps=4.2 q=56.0 size=       1KiB time=00:00:03.53 bitrate=   1.6kbits/s speed=0.0695x elapsed=0:00:50.83    \nframe=  217 fps=4.2 q=57.0 size=       1KiB time=00:00:03.60 bitrate=   1.6kbits/s speed=0.0701x elapsed=0:00:51.38    \nframe=  217 fps=4.2 q=57.0 size=       1KiB time=00:00:03.60 bitrate=   1.6kbits/s speed=0.0693x elapsed=0:00:51.94    \nframe=  221 fps=4.2 q=56.0 size=       1KiB time=00:00:03.66 bitrate=   1.6kbits/s speed=0.0698x elapsed=0:00:52.51    \nframe=  225 fps=4.2 q=53.0 size=       1KiB time=00:00:03.73 bitrate=   1.5kbits/s speed=0.0704x elapsed=0:00:53.02    \nframe=  229 fps=4.3 q=55.0 size=       1KiB time=00:00:03.80 bitrate=   1.5kbits/s speed=0.071x elapsed=0:00:53.54    \nframe=  233 fps=4.3 q=56.0 size=       1KiB time=00:00:03.86 bitrate=   1.5kbits/s speed=0.0715x elapsed=0:00:54.09    \nframe=  233 fps=4.3 q=56.0 size=       1KiB time=00:00:03.86 bitrate=   1.5kbits/s speed=0.0708x elapsed=0:00:54.62    \nframe=  237 fps=4.3 q=55.0 size=       1KiB time=00:00:03.93 bitrate=   1.4kbits/s speed=0.0713x elapsed=0:00:55.17    \nframe=  241 fps=4.3 q=52.0 size=       1KiB time=00:00:04.00 bitrate=   1.4kbits/s speed=0.0718x elapsed=0:00:55.69    \nframe=  245 fps=4.4 q=55.0 size=       1KiB time=00:00:04.06 bitrate=   1.4kbits/s speed=0.0723x elapsed=0:00:56.23    \nframe=  249 fps=4.4 q=55.0 size=       1KiB time=00:00:04.13 bitrate=   1.4kbits/s speed=0.0728x elapsed=0:00:56.77    \nframe=  249 fps=4.3 q=55.0 size=       1KiB time=00:00:04.13 bitrate=   1.4kbits/s speed=0.0721x elapsed=0:00:57.31    \nframe=  253 fps=4.4 q=55.0 size=       1KiB time=00:00:04.20 bitrate=   1.4kbits/s speed=0.0726x elapsed=0:00:57.85    \nframe=  257 fps=4.4 q=51.0 size=       1KiB time=00:00:04.26 bitrate=   1.3kbits/s speed=0.0731x elapsed=0:00:58.39    \nframe=  261 fps=4.4 q=57.0 size=       1KiB time=00:00:04.33 bitrate=   1.3kbits/s speed=0.0735x elapsed=0:00:58.96    \nframe=  265 fps=4.5 q=55.0 size=       1KiB time=00:00:04.40 bitrate=   1.3kbits/s speed=0.0739x elapsed=0:00:59.51    \nframe=  269 fps=4.5 q=57.0 size=       1KiB time=00:00:04.46 bitrate=   1.3kbits/s speed=0.0744x elapsed=0:01:00.03    \nframe=  275 fps=4.5 q=59.0 size=       1KiB time=00:00:04.56 bitrate=   1.2kbits/s speed=0.0754x elapsed=0:01:00.54    \nframe=  281 fps=4.6 q=57.0 size=       1KiB time=00:00:04.66 bitrate=   1.2kbits/s speed=0.0764x elapsed=0:01:01.06    \nframe=  285 fps=4.6 q=59.0 size=       1KiB time=00:00:04.73 bitrate=   1.2kbits/s speed=0.0769x elapsed=0:01:01.58    \nframe=  295 fps=4.8 q=59.0 size=       1KiB time=00:00:04.90 bitrate=   1.2kbits/s speed=0.0789x elapsed=0:01:02.09    \n[out#0/matroska @ 000002374d0d90c0] video:1969KiB audio:0KiB subtitle:0KiB other streams:0KiB global headers:0KiB muxing overhead: 0.106561%\nframe=  300 fps=4.8 q=59.0 Lsize=    1971KiB time=00:00:04.98 bitrate=3239.4kbits/s speed=0.0802x elapsed=0:01:02.14    \n",
  "seconds": 62.701775789260864,
  "probe_out": {}
}